PathFileType	4	(X/Y/Z)	C:\Users\Basilio\Documents\Thesis Gigler\squatting_fais\c3dfiles\073\SJ_pre4\markers_experimental.trc
DataRate	CameraRate	NumFrames	NumMarkers	Units	OrigDataRate	OrigDataStartFrame	OrigNumFrames
200.000000	200.000000	4	61	mm	200.000000	649	1299
Frame#	Time	FHD			LBHD			RBHD			C7			T10			CLAV			LSHO			LUUPA			LMUPA			LDUPA			LLEP			LMEP			LRAD			LUL			LRFIN			RSHO			RUPA1			RMUPA			RDUPA			RLEP			RMEP			RRAD			RUL			RUFIN			LASI			RASI			USACR			LSACR			RSACR			LTHI1			LTHI2			LTHI3			LTHI4			LLFC			LMFC			LTIB1			LTIB2			LTIB3			LTIB4			LLMAL			LMMAL			LHEE			LMT1			LMT2			LMT5			RTHI			RTHI2			RTHI3			RTHI4			RLFC			RMFC			RTIB1			RTIB2			RTIB3			RTIB4			RLMAL			RMMAL			RHEE			RMT1			RMT2			RMT5			
		X1	Y1	Z1	X2	Y2	Z2	X3	Y3	Z3	X4	Y4	Z4	X5	Y5	Z5	X6	Y6	Z6	X7	Y7	Z7	X8	Y8	Z8	X9	Y9	Z9	X10	Y10	Z10	X11	Y11	Z11	X12	Y12	Z12	X13	Y13	Z13	X14	Y14	Z14	X15	Y15	Z15	X16	Y16	Z16	X17	Y17	Z17	X18	Y18	Z18	X19	Y19	Z19	X20	Y20	Z20	X21	Y21	Z21	X22	Y22	Z22	X23	Y23	Z23	X24	Y24	Z24	X25	Y25	Z25	X26	Y26	Z26	X27	Y27	Z27	X28	Y28	Z28	X29	Y29	Z29	X30	Y30	Z30	X31	Y31	Z31	X32	Y32	Z32	X33	Y33	Z33	X34	Y34	Z34	X35	Y35	Z35	X36	Y36	Z36	X37	Y37	Z37	X38	Y38	Z38	X39	Y39	Z39	X40	Y40	Z40	X41	Y41	Z41	X42	Y42	Z42	X43	Y43	Z43	X44	Y44	Z44	X45	Y45	Z45	X46	Y46	Z46	X47	Y47	Z47	X48	Y48	Z48	X49	Y49	Z49	X50	Y50	Z50	X51	Y51	Z51	X52	Y52	Z52	X53	Y53	Z53	X54	Y54	Z54	X55	Y55	Z55	X56	Y56	Z56	X57	Y57	Z57	X58	Y58	Z58	X59	Y59	Z59	X60	Y60	Z60	X61	Y61	Z61	

650	3.245	105.3908615112305	952.4104003906252	-958.224792480469	-32.94610977172852	961.800964355469	-979.886413574219	-58.07322311401369	955.213073730469	-846.5769653320315	-95.7449417114258	914.7950439453127	-911.0081176757815	-405.496551513672	801.1456298828127	-909.9104614257815	-81.34743499755861	757.5803222656251	-912.9927978515627	-69.38262939453126	789.0198364257815	-1076.510009765625	-144.7201080322266	792.6987304687502	-1208.552490234375	-175.6123199462891	753.1868896484376	-1215.814331054688	-184.9786224365235	787.5545043945315	-1265.623779296875	-271.5445251464844	766.9088745117189	-1332.235717773438	-316.5581970214844	839.3812255859377	-1323.60302734375	-464.6397705078126	684.3760375976564	-1161.168334960938	-440.2439575195314	620.6372680664064	-1191.6025390625	-450.7688598632814	673.8020019531251	-1098.525756835938	-71.42978668212892	774.7622680664065	-749.7127075195314	-155.5616760253907	796.1389770507815	-601.7119750976564	-186.5196228027344	759.1526489257814	-590.4468383789064	-200.5775451660157	800.0877685546877	-548.2013549804689	-277.5501708984376	777.9678344726565	-492.5041809082032	-330.4242858886719	848.6707153320315	-528.6641845703126	-482.1631164550782	686.0254516601564	-648.5446166992189	-452.1020507812501	621.7593383789064	-620.8655395507814	-451.3483886718751	670.1942749023439	-712.9548339843751	-436.3584594726564	607.1166992187501	-1042.026489257813	-426.7019348144532	577.0211181640626	-806.3975219726565	-528.1608886718751	747.3875122070314	-898.3491821289065	-559.1952514648439	736.6619262695314	-924.9678344726565	-558.3563842773439	732.6714477539064	-869.7943115234377	-350.3885498046876	524.3595581054689	-1157.718017578125	-264.4310302734376	527.3364868164064	-1165.211181640625	-244.1296997070313	560.7072143554689	-1134.589965820313	-228.8465728759766	477.1232910156251	-1168.01171875	-190.7349548339844	443.5846557617189	-1175.35546875	-170.2967071533203	422.5637817382814	-1051.1044921875	-207.1828002929688	254.5723114013672	-1145.741821289063	-283.2750549316407	255.9227447509766	-1193.789672851563	-252.4347686767579	229.5662994384766	-1175.681884765625	-289.9765319824219	159.9380340576172	-1145.296997070313	-404.730926513672	88.89324951171876	-1175.254638671875	-380.9986572265626	100.8995132446289	-1087.777954101563	-467.2039489746095	53.64269638061525	-1131.626953125	-237.9208526611329	53.73720932006837	-1128.086059570313	-241.7525177001954	55.93227767944337	-1166.255004882813	-284.1669921875001	38.25769424438477	-1217.413940429688	-419.3313293457032	521.7515869140626	-676.5216064453126	-353.9281616210938	526.9208374023439	-669.4539794921876	-337.7886962890626	555.0906372070314	-678.3652343750001	-297.8543090820313	466.4553222656251	-662.7062988281251	-175.2505493164063	407.0883178710939	-658.2891845703126	-154.7962341308594	388.2651672363282	-778.7192382812502	-202.9894714355469	252.9854431152344	-737.7900390625001	-274.3163452148438	206.2101440429688	-669.4281616210939	-255.7356109619141	190.1808013916016	-710.3078613281251	-296.9764404296876	162.7419738769532	-741.8390502929689	-410.9472961425782	85.03308868408205	-683.7774047851564	-391.0268859863282	95.47814941406251	-772.6354980468752	-484.7459411621095	48.29317855834962	-739.9345703125001	-256.5644531250001	53.78819274902345	-709.6765747070314	-263.4854125976563	55.48165893554689	-669.0693359375001	-311.8298645019532	36.15176391601563	-626.3394775390626	
651	3.25	105.1026458740235	952.0960083007815	-958.2602539062502	-32.82294845581055	961.5963134765627	-979.9863891601565	-57.9364356994629	954.8821411132815	-846.6909790039065	-95.57883453369142	914.595153808594	-911.1174926757815	-405.4173278808595	801.0607910156252	-909.9724121093752	-81.20520019531251	757.3831176757814	-913.153991699219	-69.24519348144533	788.7498779296877	-1076.64990234375	-144.5612335205078	792.4848632812502	-1208.6533203125	-175.4532775878907	753.0078125000001	-1215.963745117188	-184.9308319091797	787.3860473632815	-1265.692016601563	-271.4472656250001	766.7776489257814	-1332.326293945313	-316.3829040527344	839.2331542968752	-1323.711303710938	-464.5678710937501	684.3015747070314	-1161.23583984375	-440.2366638183595	620.5178833007814	-1191.625854492188	-450.7249450683595	673.7177734375001	-1098.599243164063	-71.28359222412111	774.573669433594	-749.8076171875001	-155.3904266357422	795.9729614257815	-601.8315429687501	-186.394515991211	759.0092773437501	-590.5260620117189	-200.4348602294922	799.9468994140627	-548.2555541992189	-277.4377746582032	777.8928833007815	-492.5906677246095	-330.2496337890626	848.576354980469	-528.7714233398439	-482.1045227050782	686.0217285156251	-648.6307983398439	-452.053436279297	621.7401733398439	-620.9238891601564	-451.2613525390626	670.1569213867189	-713.0222778320314	-436.4439392089845	607.0004882812501	-1042.144775390625	-426.6942749023439	576.8696899414064	-806.553649902344	-528.0656127929689	747.3339233398439	-898.4318847656252	-559.1255493164064	736.6317138671876	-925.0314941406252	-558.2529296875001	732.6400146484376	-869.873962402344	-350.3677062988282	524.3008422851564	-1157.766479492188	-264.3312072753907	527.3311767578126	-1165.364013671875	-244.1022644042969	560.6290283203126	-1134.667236328125	-228.8744812011719	477.0755004882814	-1168.0693359375	-190.6572570800782	443.5642700195314	-1175.408935546875	-170.2351684570313	422.5483398437501	-1051.133544921875	-207.1629791259766	254.5795593261719	-1145.71826171875	-283.2133483886719	255.8994445800782	-1193.865478515625	-252.3914947509766	229.5383605957032	-1175.702026367188	-289.9981994628907	159.9058837890625	-1145.301391601563	-404.7468566894532	88.92254638671876	-1175.26318359375	-381.0000305175782	100.9026412963867	-1087.786254882813	-467.2291870117189	53.6254119873047	-1131.60693359375	-237.9230194091797	53.79384994506837	-1128.098754882813	-241.7600555419922	55.947078704834	-1166.284057617188	-284.1016235351563	38.25669097900391	-1217.4423828125	-419.3093261718751	521.7537841796876	-676.5134277343751	-353.8820495605469	526.9135131835939	-669.4821777343751	-337.7460937500001	555.0954589843751	-678.4388427734376	-297.8016357421876	466.4266052246095	-662.7993164062501	-175.2236785888672	407.0437927246095	-658.3114624023439	-154.7774963378907	388.2780151367189	-778.8137207031252	-203.0277862548829	252.9881896972657	-737.7885131835939	-274.2856140136719	206.2127075195313	-669.4501953125001	-255.7185821533204	190.0544586181641	-710.4015502929689	-295.0527343750001	161.9993743896485	-741.7072143554689	-410.960662841797	85.05431365966798	-683.7611083984376	-391.0279541015626	95.50244140625001	-772.692321777344	-484.7476806640626	48.293758392334	-739.9309082031251	-256.5621032714844	53.78836822509767	-709.6422119140626	-263.4789428710938	55.48744583129884	-669.1003417968751	-311.8283386230469	36.13902664184571	-626.3630371093751	
652	3.255	105.2940292358399	951.932067871094	-958.486267089844	-32.62338256835938	961.3179931640627	-980.0584716796877	-57.78711318969728	954.7744750976565	-846.6433715820315	-95.42229461669923	914.381530761719	-911.2169189453127	-405.1806030273439	800.9931640625002	-910.0728759765627	-81.14897918701173	757.1936035156251	-913.2383422851565	-69.01962280273439	788.5230712890627	-1076.770385742188	-144.5329132080078	792.2628173828127	-1208.761108398438	-175.2760009765625	752.8256225585939	-1216.003540039063	-184.7030029296875	787.1626586914065	-1265.827514648438	-271.3090820312501	766.5963134765626	-1332.342529296875	-316.2165222167969	839.071228027344	-1323.826049804688	-464.5560913085939	684.2725219726564	-1161.257446289063	-440.1664428710939	620.4664306640626	-1191.687744140625	-450.6282958984376	673.6692504882814	-1098.71142578125	-71.15599822998048	774.4077758789065	-749.8865356445314	-155.2207336425782	795.8289794921877	-601.9085693359376	-186.2565307617188	758.8508300781251	-590.6520996093751	-200.2442169189454	799.8183593750002	-548.3590698242189	-277.3260803222657	777.8258056640627	-492.6822204589845	-330.0667724609376	848.5298461914065	-528.8580932617189	-482.0225524902345	685.9970092773439	-648.6989135742189	-451.994598388672	621.7446899414064	-620.9829101562501	-451.1370544433595	670.0994873046876	-713.0795898437501	-436.2872314453126	606.9627075195314	-1042.148315429688	-426.5880126953126	576.8709716796876	-806.5797119140627	-527.9634399414064	747.3134765625001	-898.512878417969	-559.0177001953126	736.5984497070314	-925.1083984375002	-558.1555786132814	732.6173706054689	-869.9526977539065	-350.3629455566407	524.2612304687501	-1157.82470703125	-264.3217773437501	527.2442016601564	-1165.370239257813	-244.1001129150391	560.5665283203126	-1134.749389648438	-228.7633666992188	477.0354614257814	-1168.13037109375	-190.6767272949219	443.5242004394532	-1175.442749023438	-170.1575927734375	422.5679931640626	-1051.109252929688	-207.1456756591797	254.5653228759766	-1145.707275390625	-283.2090759277344	255.8913879394532	-1193.8583984375	-252.3875579833985	229.5274047851563	-1175.695068359375	-289.9669494628907	159.9035339355469	-1145.294067382813	-404.7265930175782	88.8929901123047	-1175.26806640625	-380.9915466308594	100.9210357666016	-1087.783813476563	-467.194793701172	53.6477737426758	-1131.656494140625	-237.8284759521485	53.76725387573244	-1128.138793945313	-241.7633666992188	55.91818618774415	-1166.2822265625	-284.0923767089844	38.26049041748048	-1217.448486328125	-419.2823486328126	521.7340087890626	-676.6259765625001	-353.8382873535157	526.9002075195314	-669.5444946289064	-337.7000427246094	555.0785522460939	-678.4605102539064	-297.7654724121094	466.3920898437501	-662.8651123046876	-175.2081298828125	407.0401916503907	-658.3903198242189	-154.7979125976563	388.1865844726564	-778.8618774414065	-203.0244903564454	252.910629272461	-737.8049316406251	-274.2701721191407	206.2037811279297	-669.4984130859376	-255.6730041503907	190.090560913086	-710.4016723632814	-295.4226379394532	162.1973571777344	-741.7653198242189	-410.9517517089845	85.0505828857422	-683.7791137695314	-391.023162841797	95.48054504394533	-772.6931152343752	-484.7457580566407	48.29560852050783	-739.9213867187501	-256.5746459960938	53.80652618408205	-709.6891479492189	-263.4653015136719	55.50179290771486	-669.1531982421876	-311.8378906250001	36.14511489868165	-626.3491821289064	
653	3.26	105.299430847168	951.6312255859377	-958.6692504882815	-32.51605606079102	961.0955200195315	-980.137878417969	-57.65158462524415	954.5484008789065	-846.641296386719	-95.24600982666017	914.1758422851565	-911.287292480469	-405.1573486328126	800.910339355469	-910.1508789062502	-81.0003128051758	756.9926757812501	-913.3316650390627	-68.92477416992189	788.260192871094	-1076.824340820313	-144.4344635009766	792.1467895507815	-1208.819458007813	-175.2064208984375	752.6486206054689	-1216.08447265625	-184.5500183105469	786.9063720703127	-1265.96435546875	-271.2544250488282	766.4577636718751	-1332.424194335938	-316.0647888183594	838.9233398437502	-1323.921875	-464.495574951172	684.1994628906251	-1161.349853515625	-440.1483459472657	620.4722290039064	-1191.7509765625	-450.4353942871095	673.6596679687501	-1098.745239257813	-71.09358215332033	774.2136840820315	-750.0637817382814	-155.1042785644532	795.6621093750002	-601.9906616210939	-186.0951538085938	758.7249145507814	-590.6965942382814	-200.1071777343751	799.680358886719	-548.5096435546876	-277.1383666992188	777.7349243164065	-492.7211303710939	-329.9248657226563	848.4572753906252	-528.9600830078126	-481.9118652343751	685.9738769531251	-648.8010253906251	-451.9188537597657	621.7201538085939	-621.0522460937501	-451.1354980468751	670.0910644531251	-713.1708984375001	-436.1147766113282	606.8233032226564	-1042.041870117188	-426.5776367187501	576.8623046875001	-806.4794921875002	-527.8614501953126	747.2811279296876	-898.5856933593752	-558.8892822265626	736.5590209960939	-925.1795654296877	-558.0692749023439	732.6074829101564	-870.0191650390627	-350.2756958007813	524.2436523437501	-1157.841430664063	-264.2243347167969	527.2445068359376	-1165.446899414063	-244.0379791259766	560.5311279296876	-1134.8125	-228.8041229248047	477.0010375976564	-1168.141723632813	-190.620101928711	443.4806518554689	-1175.519409179688	-170.0885009765625	422.5357666015626	-1051.18896484375	-207.0801544189454	254.516830444336	-1145.745849609375	-283.2136535644532	255.8929901123047	-1193.860595703125	-252.3160705566407	229.5186309814454	-1175.74658203125	-289.9489440917969	159.8655090332032	-1145.269653320313	-404.6495971679689	88.85158538818361	-1175.240600585938	-381.0045471191407	100.9043579101563	-1087.776489257813	-467.2031250000001	53.63167953491212	-1131.593383789063	-237.938705444336	53.7585906982422	-1128.08837890625	-241.7983093261719	55.86646270751955	-1166.234497070313	-284.1437072753907	38.20834350585938	-1217.45068359375	-419.1784667968751	521.7055664062501	-676.6950073242189	-353.7730712890626	526.8977661132814	-669.5786743164064	-337.6719055175782	555.0456542968751	-678.5653076171876	-297.6805725097657	466.3807373046876	-662.9268188476564	-175.161117553711	407.0194396972657	-658.4954223632814	-154.71337890625	388.1336364746095	-778.9297485351565	-203.0085754394532	252.9113159179688	-737.8532714843751	-274.2355651855469	206.1816711425782	-669.5558471679689	-255.7052307128907	190.0731964111328	-710.4537963867189	-295.4076538085938	162.1903839111328	-741.8120727539064	-410.954559326172	85.08248138427736	-683.7890625000001	-391.0245056152345	95.4810028076172	-772.693298339844	-484.7456359863282	48.33335494995119	-739.9158935546876	-256.5818481445313	53.80024337768556	-709.7260742187501	-263.4646606445313	55.49849319458009	-669.1482543945314	-311.8346862792969	36.14584350585938	-626.3584594726564	
